# xmcd
#
# Track frame offsets: 
#        150
#        13669
#        27275
#        42020
#        62171
#        75890
#        95435
#        115189
#        130036
#        142827
#        157657
#        198213
#
# Disc length: 3098 seconds
#
# Revision: 0
# Processed by: cddbd v1.5.2PL0 Copyright (c) Steve Scherf et al.
# Submitted via: ExactAudioCopyFreeDBPlugin 1.0
#
DISCID=820c180c
DTITLE=Skip Battin - Topanga Skyline
DYEAR=2010
DGENRE=Country
TTITLE0=Salty Dog Blues
TTITLE1=Bolts Of Blue
TTITLE2=Stoned Sober
TTITLE3=Relax With Me
TTITLE4=Willow In The Wind
TTITLE5=Don't Go Down The Drain
TTITLE6=Roll In My Sweet Baby’s Arms 1 and 2
TTITLE7=Hully Gully
TTITLE8=Foggy Mountain Top
TTITLE9=Wintergreen
TTITLE10=China Moon
TTITLE11=Video
EXTD=
EXTT0=
EXTT1=
EXTT2=
EXTT3=
EXTT4=
EXTT5=
EXTT6=
EXTT7=
EXTT8=
EXTT9=
EXTT10=
EXTT11=
PLAYORDER=
